<?xml version="1.0" encoding="utf-8"?>
<!-- Generator: Adobe Illustrator 25.1.0, SVG Export Plug-In . SVG Version: 6.00 Build 0)  -->
<svg version="1.1" id="Capa_1" xmlns="http://www.w3.org/2000/svg" xmlns:xlink="http://www.w3.org/1999/xlink" x="0px" y="0px"
	 viewBox="0 0 512 512" style="enable-background:new 0 0 512 512;" xml:space="preserve">
<style type="text/css">
	.st0{fill:#FFFFFF;}
</style>
<g>
	<g>
		<path class="st0" d="M322,0c-35.9,0-70.9,10.1-101.1,29.1c-4.7,2.9-6.1,9.1-3.1,13.8c2.9,4.7,9.1,6.1,13.8,3.1
			C258.6,29,289.9,20,322,20c93.7,0,170,76.3,170,170s-76.3,170-170,170s-170-76.3-170-170c0-32.1,9-63.4,26.1-90.5
			c2.9-4.7,1.5-10.8-3.1-13.8c-4.7-2.9-10.8-1.5-13.8,3.1C142.1,119.1,132,154.1,132,190c0,41.6,13.4,80.1,36.2,111.4l-17.1,17.1
			c-11.1-5.3-24.9-3.4-34.1,5.9L8.8,432.5c-11.7,11.7-11.7,30.7,0,42.4l28.3,28.3c5.7,5.6,13.2,8.8,21.2,8.8c8,0,15.6-3.1,21.2-8.8
			l108.2-108.2c5.6-5.7,8.8-13.2,8.8-21.2c0-4.6-1-8.9-2.9-12.9l17.1-17.1C241.9,366.6,280.4,380,322,380c104.8,0,190-85.2,190-190
			S426.8,0,322,0z M173.5,380.9L65.3,489.1c-1.9,1.9-4.4,2.9-7.1,2.9s-5.2-1-7.1-2.9l-28.3-28.3c-3.9-3.9-3.9-10.2,0-14.1
			l108.2-108.2c1.9-1.9,4.5-2.9,7.1-2.9c2.6,0,5.1,1,7.1,2.9l28.3,28.3c1.9,1.9,2.9,4.4,2.9,7.1S175.4,379,173.5,380.9z
			 M180.6,345.6l-14.1-14.1l14.4-14.4c4.5,5,9.2,9.7,14.1,14.1L180.6,345.6z"/>
		<path class="st0" d="M440.4,265.4c4.9,2.6,10.9,0.8,13.6-4c11.8-21.8,18-46.5,18-71.4c0-82.7-67.3-150-150-150s-150,67.3-150,150
			s67.3,150,150,150c24.9,0,49.6-6.2,71.4-18c4.9-2.6,6.7-8.7,4-13.6c-2.6-4.9-8.7-6.7-13.6-4C365,314.6,343.6,320,322,320
			c-71.7,0-130-58.3-130-130S250.3,60,322,60c71.7,0,130,58.3,130,130c0,21.6-5.4,43-15.6,61.8C433.7,256.7,435.6,262.8,440.4,265.4
			z"/>
		<path class="st0" d="M194.7,72.7c2.4,0,4.8-0.9,6.7-2.6c4.1-3.7,4.4-10,0.7-14.1c-3.7-4.1-10-4.4-14.1-0.7l0,0
			c-4.1,3.7-4.4,10-0.7,14.1C189.3,71.6,192,72.7,194.7,72.7z"/>
		<path class="st0" d="M421,299c2.3,0,4.5-0.8,6.4-2.3c4.2-3.5,4.8-9.8,1.3-14.1c-3.5-4.2-9.8-4.8-14.1-1.3l0,0
			c-4.2,3.5-4.8,9.8-1.3,14.1C415.3,297.8,418.1,299,421,299z"/>
		<path class="st0" d="M426.7,195.8c2.5-3.5,2.5-8.1,0-11.6c-21.7-30.7-61.9-49.7-104.7-49.7s-83,19.1-104.7,49.7
			c-2.5,3.5-2.5,8.1,0,11.6c21.7,30.7,61.9,49.7,104.7,49.7S405,226.5,426.7,195.8z M357.5,190c0,19.6-15.9,35.5-35.5,35.5
			c-19.6,0-35.5-15.9-35.5-35.5c0-19.6,15.9-35.5,35.5-35.5C341.6,154.5,357.5,170.4,357.5,190z M238.1,190
			c9-10.5,20.9-19.1,34.5-25.2c-3.9,7.6-6.1,16.1-6.1,25.2c0,9.1,2.2,17.6,6.1,25.2C259,209.1,247.1,200.5,238.1,190z M371.5,215.2
			c3.9-7.6,6.1-16.1,6.1-25.2c0-9.1-2.2-17.6-6.1-25.2c13.6,6.1,25.5,14.6,34.5,25.2C396.9,200.5,385.1,209.1,371.5,215.2z"/>
		<path class="st0" d="M322,200L322,200c5.5,0,10-4.5,10-10c0-5.5-4.5-10-10-10c-5.5,0-10,4.5-10,10C312,195.5,316.5,200,322,200z"
			/>
	</g>
</g>
</svg>
