<?xml version="1.0" encoding="utf-8"?>
<!-- Generator: Adobe Illustrator 25.1.0, SVG Export Plug-In . SVG Version: 6.00 Build 0)  -->
<svg version="1.1" id="Capa_1" xmlns="http://www.w3.org/2000/svg" xmlns:xlink="http://www.w3.org/1999/xlink" x="0px" y="0px"
	 viewBox="0 0 480 480" style="enable-background:new 0 0 480 480;" xml:space="preserve">
<style type="text/css">
	.st0{fill:#FFFFFF;}
</style>
<g>
	<g>
		<path class="st0" d="M395.5,232v176h-48c-4.4,0-8,3.6-8,8v48h-296V16h352v104h16V8c0-4.4-3.6-8-8-8h-368c-4.4,0-8,3.6-8,8v464
			c0,4.4,3.6,8,8,8h312c2.1,0,4.2-0.8,5.7-2.3l56-56c0.7-0.7,1.2-1.5,1.6-2.3c0.1-0.2,0.2-0.5,0.3-0.7c0.2-0.7,0.4-1.4,0.4-2.1
			c0-0.2,0.1-0.3,0.1-0.5V232H395.5z M355.5,452.7V424h28.7L355.5,452.7z"/>
	</g>
</g>
<g>
	<g>
		<path class="st0" d="M445.2,134.3c-9.9-9.4-25.4-9.4-35.3,0l-140,140c-1.5,1.5-2.3,3.5-2.3,5.7v24c0,4.4,3.6,8,8,8h24
			c2.1,0,4.2-0.8,5.7-2.3l140-140C454.9,159.9,454.9,144.1,445.2,134.3z M296.2,296h-12.7v-12.7l100-100l12.7,12.7L296.2,296z
			 M407.5,184.7L394.8,172l8.7-8.7l12.7,12.7L407.5,184.7z M433.9,158.3l-6.3,6.3L414.8,152l6.3-6.3c3.5-3.4,9.1-3.4,12.7,0
			C437.4,149.2,437.4,154.8,433.9,158.3z"/>
	</g>
</g>
<g>
	<g>
		<path class="st0" d="M99.5,104c-17.7,0-32,14.3-32,32s14.3,32,32,32s32-14.3,32-32S117.2,104,99.5,104z M99.5,152
			c-8.8,0-16-7.2-16-16s7.2-16,16-16s16,7.2,16,16S108.4,152,99.5,152z"/>
	</g>
</g>
<g>
	<g>
		<polygon class="st0" points="249.2,37.7 237.9,26.3 219.5,44.7 201.2,26.3 189.9,37.7 208.2,56 189.9,74.3 201.2,85.7 219.5,67.3 
			237.9,85.7 249.2,74.3 230.8,56 		"/>
	</g>
</g>
<g>
	<g>
		<path class="st0" d="M323.5,96c-17.7,0-32,14.3-32,32s14.3,32,32,32s32-14.3,32-32S341.2,96,323.5,96z M323.5,144
			c-8.8,0-16-7.2-16-16s7.2-16,16-16s16,7.2,16,16C339.5,136.8,332.4,144,323.5,144z"/>
	</g>
</g>
<g>
	<g>
		<path class="st0" d="M123.5,328c-17.7,0-32,14.3-32,32s14.3,32,32,32s32-14.3,32-32S141.2,328,123.5,328z M123.5,376
			c-8.8,0-16-7.2-16-16s7.2-16,16-16s16,7.2,16,16S132.4,376,123.5,376z"/>
	</g>
</g>
<g>
	<g>
		<polygon class="st0" points="161.2,221.7 149.9,210.3 131.5,228.7 113.2,210.3 101.9,221.7 120.2,240 101.9,258.3 113.2,269.7 
			131.5,251.3 149.9,269.7 161.2,258.3 142.8,240 		"/>
	</g>
</g>
<g>
	<g>
		<polygon class="st0" points="361.2,333.7 349.9,322.3 331.5,340.7 313.2,322.3 301.9,333.7 320.2,352 301.9,370.3 313.2,381.7 
			331.5,363.3 349.9,381.7 361.2,370.3 342.8,352 		"/>
	</g>
</g>
<g>
	<g>
		<path class="st0" d="M173.5,160h13.6v-16h-32c-4.4,0-8,3.6-8,8v32h16v-11.2c34.7,44.7,32.2,108-5.9,149.8l11.8,10.8
			C213.4,284.7,215.3,210.9,173.5,160z"/>
	</g>
</g>
<g>
	<g>
		<path class="st0" d="M219.5,368c-17.7,0-32,14.3-32,32s14.3,32,32,32s32-14.3,32-32S237.2,368,219.5,368z M219.5,416
			c-8.8,0-16-7.2-16-16s7.2-16,16-16s16,7.2,16,16S228.4,416,219.5,416z"/>
	</g>
</g>
<g>
	<g>
		<path class="st0" d="M273.2,114.3l-24-24l-11.3,11.3l10.3,10.3H147.5v16h100.7l-10.3,10.3l11.3,11.3l24-24
			C276.3,122.5,276.3,117.5,273.2,114.3z"/>
	</g>
</g>
<g>
	<g>
		<path class="st0" d="M291.5,160h-32v16h13c-39.3,41.8-61.1,97.1-61,154.5V352h16v-21.5c-0.1-53,19.9-104.1,56-142.9V200h16v-32
			C299.5,163.6,295.9,160,291.5,160z"/>
	</g>
</g>
</svg>
