<?xml version="1.0" encoding="utf-8"?>
<!-- Generator: Adobe Illustrator 25.1.0, SVG Export Plug-In . SVG Version: 6.00 Build 0)  -->
<svg version="1.1" id="_x33_0" xmlns="http://www.w3.org/2000/svg" xmlns:xlink="http://www.w3.org/1999/xlink" x="0px" y="0px"
	 viewBox="0 0 512 512" style="enable-background:new 0 0 512 512;" xml:space="preserve">
<style type="text/css">
	.st0{fill:#FFFFFF;}
</style>
<g>
	<path class="st0" d="M392,384c13.2,0,24-10.8,24-24s-10.8-24-24-24s-24,10.8-24,24S378.8,384,392,384z M392,352c4.4,0,8,3.6,8,8
		s-3.6,8-8,8s-8-3.6-8-8S387.6,352,392,352z"/>
	<path class="st0" d="M473.3,326.2c-2.4-5.8-1.1-12.4,3.3-16.8l11.6-11.6l-34-34l-11.7,11.6c-4.4,4.4-11,5.7-17.1,3.1
		c-5.7-2.4-9.5-7.9-9.5-14.1V248h-16.4c-0.7-12.9-3.1-25.4-7.1-37.2l92.6-92.6C497.3,106,504,89.8,504,72.6C504,37,475,8,439.4,8
		c-17.2,0-33.5,6.7-45.7,18.9l-92.5,92.5c-12-4-24.6-6.4-37.7-7C252.5,93.1,231.8,80,208,80c-6.1,0-12,0.9-17.6,2.5
		C176.6,56.5,149.8,40,120,40c-44.1,0-80,35.9-80,80c0,6.1,0.8,12.2,2.1,18.1C22.4,144,8,162.4,8,184c0,26.5,21.5,48,48,48h58
		c-1.3,7.9-2,15.9-2,24c0,17.6,3.3,31.9,8.5,44.2l-71.4,71.4L9.4,474.8c-1,2.5-1.4,5.1-1.4,7.7c0,11.9,9.6,21.5,21.5,21.5
		c2.6,0,5.2-0.5,7.7-1.4l103.2-39.7l52.2-52.2c-0.4,1.7-0.6,3.5-0.6,5.3c0,6.2,2.4,11.7,6.2,16c-3.8,4.3-6.2,9.8-6.2,16
		c0,11.1,7.6,20.4,17.9,23.1C216.7,490.6,235,504,256,504s39.3-13.4,46.1-32.9c10.3-2.7,17.9-12,17.9-23.1c0-0.6-0.1-1.2-0.2-1.7
		l9.9,9.9l11.7-11.6c4.4-4.4,11-5.7,17.1-3.2c5.7,2.4,9.5,7.9,9.5,14.2V472h48v-16.4c0-6.2,3.7-11.8,9.8-14.3
		c5.8-2.4,12.4-1.1,16.8,3.3l11.6,11.6l34-34l-11.6-11.6c-4.4-4.4-5.7-11-3.1-17.1c2.4-5.7,7.9-9.5,14.2-9.5H504v-48h-16.4
		C481.3,336,475.8,332.3,473.3,326.2L473.3,326.2z M353.4,349.8c8.7-8.5,17.5-17.2,25-27.3c4.4-1.6,8.9-2.5,13.6-2.5
		c22.1,0,40,17.9,40,40s-17.9,40-40,40s-40-17.9-40-40C352,356.5,352.5,353.1,353.4,349.8L353.4,349.8z M363,160.3l37-37l28.7,28.7
		L386,194.7C380,182.2,372.2,170.6,363,160.3z M371.3,72L384,59.3l68.7,68.7L440,140.7L371.3,72z M439.4,24
		c26.8,0,48.6,21.8,48.6,48.6c0,13-5,25.2-14.2,34.3l-9.8,9.8L395.3,48l9.8-9.8C414.3,29.1,426.5,24,439.4,24L439.4,24z M360,83.3
		l28.7,28.7l-37,37c-10.3-9.2-21.8-17-34.4-23L360,83.3z M384,256c0,41.6-21,62.1-43.2,83.7c-15.3,14.9-31,30.3-40.1,52.8
		c-1.5-0.3-3.1-0.5-4.7-0.5h-32v-40c0-13.2-10.8-24-24-24h-16c-4.4,0-8-3.6-8-8s3.6-8,8-8h80c13.2,0,24-10.8,24-24s-10.8-24-24-24
		h-64c-4.4,0-8-3.6-8-8v-24h40c22.1,0,40-17.9,40-40s-17.9-40-40-40c-0.2,0-0.4,0.1-0.7,0.1c0.3-2.7,0.7-5.3,0.7-8.1
		c0-5.2-0.7-10.3-1.9-15.2C333.9,135.9,384,190.7,384,256L384,256z M208,416c0-4.4,3.6-8,8-8h80c4.4,0,8,3.6,8,8s-3.6,8-8,8h-80
		C211.6,424,208,420.4,208,416z M107.3,416l58.8-58.8c9.8,9.8,19,19.6,25.7,31.7L136,444.7L107.3,416z M24,184c0-17.6,14.4-32,32-32
		s32,14.4,32,32h16c0-25.8-20.4-46.8-46-47.9c-1.4-5.2-2-10.6-2-16.1c0-35.3,28.7-64,64-64c23.4,0,44.5,12.7,55.8,32.8
		c-17.1,10-29.1,27.6-31.4,48.2c-14,3.4-24.4,16-24.4,31h16c0-8.8,7.2-16,16-16s16,7.2,16,16h16c0-14.7-10-26.9-23.5-30.7
		C163.8,114,183.8,96,208,96c26.5,0,48,21.5,48,48c0,4.2-0.7,8.3-1.8,12.3c-13.1,6.6-22.2,20-22.2,35.7h16c0-13.2,10.8-24,24-24
		s24,10.8,24,24s-10.8,24-24,24H56C38.4,216,24,201.6,24,184z M216,232v24c0,13.2,10.8,24,24,24h64c4.4,0,8,3.6,8,8s-3.6,8-8,8h-80
		c-13.2,0-24,10.8-24,24s10.8,24,24,24h16c4.4,0,8,3.6,8,8v40h-32c-1.6,0-3.2,0.2-4.7,0.5c-9.1-22.5-24.8-37.9-40.1-52.8
		C149,318.1,128,297.6,128,256c0-8.1,1-16.1,2.5-24H216z M154.7,346L96,404.7L67.3,376l61-61C135.9,326.8,145.2,336.6,154.7,346
		L154.7,346z M59,390.4l62.6,62.6l-53,20.4l-30-30L59,390.4z M31.5,487.6c-3.5,1.3-7.5-1.4-7.5-5.1c0-0.7,0.1-1.3,0.4-2l8-20.8
		l19.9,19.9L31.5,487.6z M256,488c-11.8,0-22.4-6.3-28.2-16h56.4C278.4,481.7,267.8,488,256,488L256,488z M296,456h-80
		c-4.4,0-8-3.6-8-8s3.6-8,8-8h80c4.4,0,8,3.6,8,8S300.4,456,296,456z M488,368h-0.4c-12.7,0-24.1,7.6-29,19.6
		c-4.9,11.8-2.3,25.3,6.7,34.3l0.3,0.3l-11.3,11.3l-0.3-0.3c-9-9-22.5-11.7-34.6-6.6c-11.8,4.9-19.4,16.2-19.4,28.9v0.4h-16v-0.4
		c0-12.7-7.6-24.1-19.6-29.1c-11.8-4.9-25.3-2.3-34.3,6.7l-0.3,0.3l-10.8-10.8c0.6-2.2,1.1-4.4,1.1-6.7c0-5.7-2.1-10.8-5.4-15
		c5-13.4,12.8-24.2,21.9-34.1c3.4,27.6,27,49,55.5,49c30.9,0,56-25.1,56-56s-25.1-56-56-56c-0.8,0-1.5,0.1-2.3,0.1
		c5.4-11.2,9.1-24.3,10.1-40.1h0.2v0.4c0,12.7,7.6,24.1,19.6,29c11.8,4.9,25.3,2.3,34.3-6.7l0.3-0.3l11.3,11.3l-0.3,0.3
		c-9,9-11.6,22.5-6.6,34.5c4.9,11.8,16.2,19.4,28.9,19.4h0.4L488,368z"/>
</g>
</svg>
