<?xml version="1.0" encoding="utf-8"?>
<!-- Generator: Adobe Illustrator 25.1.0, SVG Export Plug-In . SVG Version: 6.00 Build 0)  -->
<svg version="1.1" id="Capa_1" xmlns="http://www.w3.org/2000/svg" xmlns:xlink="http://www.w3.org/1999/xlink" x="0px" y="0px"
	 viewBox="0 0 512 512" style="enable-background:new 0 0 512 512;" xml:space="preserve">
<style type="text/css">
	.st0{fill:#FFFFFF;}
</style>
<path class="st0" d="M320.7,280.6v-125c0-4.1-3.4-7.5-7.5-7.5c-4.1,0-7.5,3.4-7.5,7.5V174c-0.2,0.1-0.3,0.1-0.5,0.2l-151.8,82.8
	v-1.7c0-3.8-1.7-7.2-4.6-9.2c-2.9-2-6.7-2.4-10.2-1l-93.1,36c-5.4,2.1-9.4,7.8-9.5,13.6H17.5c-9.6,0-17.5,7.9-17.5,17.5v31.1
	c0,9.6,7.9,17.5,17.5,17.5h18.4c0.1,5.8,4,11.5,9.5,13.6l14.6,5.6H44.1c-9.7,0-17.5,7.5-17.5,16.7c0,0.8-1.1,1.7-2.5,1.7h-4
	c-9.6,0-17.5,7.8-17.5,17.5v40.3c0,9.6,7.9,17.5,17.5,17.5h4c1.4,0,2.5,0.9,2.5,1.7c0,9.2,7.8,16.7,17.5,16.7h12.3v3.2
	c0,6.9,5.6,12.5,12.5,12.5h30.2c6.4,0,12.2-4.9,13.2-11.2l1.4-8.8h15.3c9.6,0,17.5-7.9,17.5-17.5V461c0-3.7-1.2-7.2-3.2-10
	c2-2.8,3.2-6.3,3.2-10v-9.5c0-3.7-1.2-7.2-3.2-10c2-2.8,3.2-6.3,3.2-10v-0.9c0.7-0.3,1.5-0.7,2.1-1.1c2.9-2,4.6-5.4,4.6-9.2v-1.7
	l151.8,82.8c0.2,0.1,0.3,0.1,0.5,0.2v18.4c0,4.1,3.4,7.5,7.5,7.5c4.1,0,7.5-3.4,7.5-7.5v-125c20.2-6.1,35-25,35-47.3
	S340.9,286.7,320.7,280.6z M35.9,345.9H17.5c-1.4,0-2.5-1.1-2.5-2.5v-31.1c0-1.4,1.1-2.5,2.5-2.5h18.4V345.9z M65,433.3
	c-1.4,0-2.5-1.1-2.5-2.5v-17.6c0-4.1-3.4-7.5-7.5-7.5c-4.1,0-7.5,3.4-7.5,7.5v17.6c0,6.5,3.6,12.2,8.9,15.2v31.3H44.1
	c-1.4,0-2.5-0.9-2.5-1.7c0-9.2-7.9-16.7-17.5-16.7h-4c-1.4,0-2.5-1.1-2.5-2.5v-40.3c0-1.4,1.1-2.5,2.5-2.5h4
	c9.6,0,17.5-7.5,17.5-16.7c0-0.8,1.1-1.7,2.5-1.7h30.3c1.4,0,2.5,1.1,2.5,2.5v33.2c0,1.4-1.1,2.5-2.5,2.5H65z M97.7,493H71.4v-44.7
	h3c5.2,0,9.8-2.3,13-5.8c0.3,3.1,1.4,6,3.1,8.5c-2,2.8-3.2,6.3-3.2,10v9.5c0,7.5,4.8,13.9,11.4,16.4L97.7,493z M131.6,470.6
	c0,1.4-1.1,2.5-2.5,2.5h-24.3c-1.4,0-2.5-1.1-2.5-2.5V461c0-1.4,1.1-2.5,2.5-2.5h24.3c1.4,0,2.5,1.1,2.5,2.5V470.6z M131.6,441
	c0,1.4-1.1,2.5-2.5,2.5h-24.3c-1.4,0-2.5-1.1-2.5-2.5v-9.5c0-1.4,1.1-2.5,2.5-2.5h24.3c1.4,0,2.5,1.1,2.5,2.5V441z M131.6,411.5
	c0,1.4-1.1,2.5-2.5,2.5h-24.3c-1.4,0-2.5-1.1-2.5-2.5v-9.5c0-1.4,1.1-2.5,2.5-2.5h5.2l21.6,8.3L131.6,411.5L131.6,411.5z
	 M305.7,464.6l-27.5-15V308c0-4.1-3.4-7.5-7.5-7.5c-4.1,0-7.5,3.4-7.5,7.5v133.4l-109.9-59.9V372c0-4.1-3.4-7.5-7.5-7.5
	s-7.5,3.4-7.5,7.5v22.3L51,360.6c0-0.1-0.1-0.1-0.1-0.2v-65.2c0-0.1,0.1-0.1,0.1-0.2l87.3-33.7V337c0,4.1,3.4,7.5,7.5,7.5
	c4.1,0,7.5-3.4,7.5-7.5v-62.9l109.9-59.9V272c0,4.1,3.4,7.5,7.5,7.5c4.1,0,7.5-3.4,7.5-7.5v-66l27.5-15V464.6z M320.7,359.1v-62.5
	c11.8,5.4,20,17.4,20,31.3S332.4,353.6,320.7,359.1z"/>
<path class="st0" d="M408.3,250.6c-2.9,2.9-2.9,7.7,0,10.6c36.6,36.8,36.6,96.5,0,133.3c-2.9,2.9-2.9,7.7,0,10.6
	c1.5,1.5,3.4,2.2,5.3,2.2c1.9,0,3.9-0.7,5.3-2.2c42.4-42.6,42.4-111.9,0-154.4C415.9,247.7,411.2,247.6,408.3,250.6z"/>
<path class="st0" d="M371.6,274.1c-2.9,2.9-2.9,7.7,0,10.6c23.6,23.7,23.6,62.4,0,86.1c-2.9,2.9-2.9,7.7,0,10.6
	c1.5,1.5,3.4,2.2,5.3,2.2c1.9,0,3.9-0.7,5.3-2.2c29.4-29.6,29.4-77.7,0-107.3C379.3,271.2,374.5,271.2,371.6,274.1z"/>
<path class="st0" d="M109.8,295.9H85.5c-4.1,0-7.5,3.4-7.5,7.5c0,4.1,3.4,7.5,7.5,7.5h24.3c4.1,0,7.5-3.4,7.5-7.5
	C117.3,299.2,113.9,295.9,109.8,295.9z"/>
<path class="st0" d="M109.8,320.3H85.5c-4.1,0-7.5,3.4-7.5,7.5s3.4,7.5,7.5,7.5h24.3c4.1,0,7.5-3.4,7.5-7.5S113.9,320.3,109.8,320.3
	z"/>
<path class="st0" d="M109.8,344.8H85.5c-4.1,0-7.5,3.4-7.5,7.5c0,4.1,3.4,7.5,7.5,7.5h24.3c4.1,0,7.5-3.4,7.5-7.5
	C117.3,348.1,113.9,344.8,109.8,344.8z"/>
<path class="st0" d="M499.5,67.3H352c-6.9,0-12.5,5.6-12.5,12.5v111.7c0,6.9,5.6,12.5,12.5,12.5h17.4v23.3c0,4.4,2.1,7.9,5.7,9.4
	c1.1,0.5,2.2,0.7,3.4,0.7c2.6,0,5.1-1.1,7.3-3.3l29-28.8c0.6-0.6,2.5-1.3,3.3-1.4h29c4.1,0,7.5-3.4,7.5-7.5c0-4.1-3.4-7.5-7.5-7.5
	h-29c-4.8,0-10.4,2.3-13.8,5.7l-19.8,19.6v-12.8c0-6.9-5.6-12.5-12.5-12.5h-17.4V82.3H497V189h-15c-4.1,0-7.5,3.4-7.5,7.5
	c0,4.1,3.4,7.5,7.5,7.5h17.5c6.9,0,12.5-5.6,12.5-12.5V79.8C512,72.9,506.4,67.3,499.5,67.3z"/>
<path class="st0" d="M382.9,115h85.7c4.1,0,7.5-3.4,7.5-7.5c0-4.1-3.4-7.5-7.5-7.5h-85.7c-4.1,0-7.5,3.4-7.5,7.5
	C375.4,111.7,378.8,115,382.9,115z"/>
<path class="st0" d="M468.6,128.2h-85.7c-4.1,0-7.5,3.4-7.5,7.5c0,4.1,3.4,7.5,7.5,7.5h85.7c4.1,0,7.5-3.4,7.5-7.5
	C476.1,131.5,472.7,128.2,468.6,128.2z"/>
<path class="st0" d="M382.9,156.3c-4.1,0-7.5,3.4-7.5,7.5c0,4.1,3.4,7.5,7.5,7.5h38.3c4.1,0,7.5-3.4,7.5-7.5c0-4.1-3.4-7.5-7.5-7.5
	H382.9z"/>
<path class="st0" d="M133.8,140.7h81.5c0.8,0,2.7,0.8,3.3,1.3l29,28.8c2.7,2.7,5.5,3.3,7.3,3.3c4.5,0,9-3.5,9-10.1v-23.3h17.4
	c6.9,0,12.5-5.6,12.5-12.5V16.5c0-6.9-5.6-12.5-12.5-12.5H133.8c-6.9,0-12.5,5.6-12.5,12.5v111.7
	C121.3,135.1,126.9,140.7,133.8,140.7z M136.3,19h142.5v106.7h-17.4c-6.9,0-12.5,5.6-12.5,12.5V151l-19.8-19.6
	c-3.4-3.4-9.1-5.7-13.8-5.7h-79L136.3,19L136.3,19z"/>
<path class="st0" d="M164.7,51.7h85.6c4.1,0,7.5-3.4,7.5-7.5s-3.4-7.5-7.5-7.5h-85.6c-4.1,0-7.5,3.4-7.5,7.5S160.6,51.7,164.7,51.7z
	"/>
<path class="st0" d="M164.7,79.9h85.6c4.1,0,7.5-3.4,7.5-7.5c0-4.1-3.4-7.5-7.5-7.5h-85.6c-4.1,0-7.5,3.4-7.5,7.5
	C157.2,76.5,160.6,79.9,164.7,79.9z"/>
<path class="st0" d="M203,93h-38.3c-4.1,0-7.5,3.4-7.5,7.5c0,4.1,3.4,7.5,7.5,7.5H203c4.1,0,7.5-3.4,7.5-7.5
	C210.5,96.4,207.2,93,203,93z"/>
</svg>
